<?xml version="1.0" standalone="no"?>
<!DOCTYPE svg PUBLIC "-//W3C//DTD SVG 20010904//EN"
 "http://www.w3.org/TR/2001/REC-SVG-20010904/DTD/svg10.dtd">
<svg version="1.0" xmlns="http://www.w3.org/2000/svg"
 width="408.000000pt" height="408.000000pt" viewBox="0 0 408.000000 408.000000"
 preserveAspectRatio="xMidYMid meet">
<metadata>
Created by potrace 1.14, written by Peter Selinger 2001-2017
</metadata>
<g transform="translate(0.000000,408.000000) scale(0.100000,-0.100000)"
fill="#000000" stroke="none">
<path d="M1240 3570 c-5 -3 -12 -21 -15 -40 -4 -19 -11 -59 -16 -87 -5 -29
-14 -79 -19 -110 -6 -32 -13 -73 -16 -92 -3 -18 -8 -43 -10 -55 -2 -11 -6 -32
-9 -46 -47 -267 -67 -380 -70 -402 -2 -15 -9 -53 -14 -85 -14 -77 -17 -92 -25
-133 -3 -19 -8 -46 -11 -60 -3 -14 -7 -38 -10 -55 -2 -16 -7 -41 -9 -55 -3
-14 -14 -77 -25 -140 -21 -123 -28 -161 -36 -200 -2 -14 -16 -90 -30 -170 -13
-80 -27 -156 -30 -170 -4 -24 -41 -237 -50 -290 -3 -14 -14 -74 -24 -135 -11
-60 -22 -123 -25 -140 -3 -16 -16 -93 -30 -170 -13 -77 -27 -156 -30 -175 -4
-19 -11 -57 -16 -85 -5 -27 -12 -65 -15 -82 -3 -18 -7 -45 -10 -61 l-4 -27
1069 0 c587 0 1070 2 1073 5 2 3 16 75 30 160 15 85 29 166 32 180 3 14 7 39
10 55 3 17 7 44 10 60 3 17 8 41 10 55 2 14 9 49 14 79 6 29 11 58 11 62 0 5
-307 9 -686 9 l-685 0 6 37 c9 57 12 74 44 267 17 98 31 182 31 187 0 5 243 9
570 9 373 0 570 3 571 10 1 6 2 13 3 18 5 18 17 90 21 121 2 18 6 40 9 50 3 9
8 36 12 61 3 25 7 50 8 55 4 16 16 78 20 105 3 22 29 161 40 217 3 12 -1 23
-7 25 -7 2 -259 3 -562 2 -336 0 -552 3 -556 9 -4 5 -3 24 1 41 5 17 11 51 14
76 8 57 14 93 26 150 5 25 11 63 14 85 3 22 7 47 10 55 3 8 8 33 10 55 3 22 8
55 12 73 l7 32 686 0 687 0 17 98 c10 53 20 111 23 127 3 17 21 116 40 220 18
105 34 197 34 205 0 13 -125 15 -1061 15 -583 0 -1065 -2 -1069 -5z"/>
</g>
</svg>
