<?xml version="1.0" encoding="UTF-8" standalone="no"?>
<svg
   width="431.16202mm"
   height="117.07288mm"
   viewBox="0 0 1527.6065 414.79"
   version="1.1"
   id="svg3"
   inkscape:version="1.1.1 (3bf5ae0d25, 2021-09-20)"
   xmlns:inkscape="http://www.inkscape.org/namespaces/inkscape"
   xmlns:sodipodi="http://sodipodi.sourceforge.net/DTD/sodipodi-0.dtd"
   xmlns:xlink="http://www.w3.org/1999/xlink"
   xmlns="http://www.w3.org/2000/svg"
   xmlns:svg="http://www.w3.org/2000/svg">
  <defs
     id="defs7">
    <linearGradient
       inkscape:collect="always"
       id="neon">
      <stop
         style="stop-color:#3ce7f5;stop-opacity:1"
         offset="0"
         id="stop824" />
      <stop
         style="stop-color:#dc2877;stop-opacity:1"
         offset="1"
         id="stop826" />
    </linearGradient>
    <linearGradient
       inkscape:collect="always"
       xlink:href="#neon"
       id="linearGradient830"
       x1="921.53143"
       y1="56.70155"
       x2="848.45435"
       y2="472.61664"
       gradientUnits="userSpaceOnUse"
       gradientTransform="translate(-46.323284,-56.701548)" />
  </defs>
  <sodipodi:namedview
     id="namedview5"
     pagecolor="#ffffff"
     bordercolor="#666666"
     borderopacity="1.0"
     inkscape:pageshadow="2"
     inkscape:pageopacity="0.0"
     inkscape:pagecheckerboard="0"
     inkscape:document-units="mm"
     showgrid="false"
     inkscape:zoom="1.4142136"
     inkscape:cx="810.34437"
     inkscape:cy="296.27774"
     inkscape:window-width="3584"
     inkscape:window-height="1892"
     inkscape:window-x="-12"
     inkscape:window-y="443"
     inkscape:window-maximized="1"
     inkscape:current-layer="svg3">
    <inkscape:grid
       type="xygrid"
       id="grid2613"
       originx="-46.323179"
       originy="-56.701545" />
  </sodipodi:namedview>
  <path
     id="Path"
     fill="none"
     stroke="#000000"
     stroke-width="1"
     d="m 200.81816,303.59 c 0,0 -200.82000254,0 -200.82000254,0 0,0 50.81999954,-288 50.81999954,-288 0,0 200.790003,0 200.790003,0 0,0 -11.2,62.410002 -11.2,62.410002 0,0 -128.8,0 -128.8,0 0,0 -9.2,53.999998 -9.2,53.999998 0,0 106.41,0 106.41,0 0,0 -11.21,62.39 -11.21,62.39 0,0 -106.400004,0 -106.400004,0 0,0 -8,46.79 -8,46.79 0,0 128.790004,0 128.790004,0 0,0 -11.18,62.41 -11.18,62.41 z m 121.79,-61.59 c 0,6.93 3.53,10.39 10.6,10.39 7.07,0 13,-1.34 17.79,-4 0,0 -2,45.2 -2,45.2 -12.79,10.39 -27.18,15.59 -43.18,15.59 -24.28,0 -40.01,-5.59 -47.21,-16.79 -4.53,-7.2 -6.79,-15.07 -6.79,-23.6 0,-8.53 0.53,-16 1.59,-22.4 0,0 43.59,-246.39 43.59,-246.39 0,0 68,0 68,0 0,0 -42,237.18 -42,237.18 -0.26,1.61 -0.39,3.21 -0.39,4.82 z m 134.39,67.18 c -55.46,0 -83.18,-19.19 -83.18,-57.59 0,-5.33 0.53,-11.07 1.59,-17.2 0,0 8.41,-49.6 8.41,-49.6 4.53,-25.6 16.32,-45.27 35.39,-59 19.07,-13.74 44.33,-20.61 75.79,-20.61 53.61,0 80.41,20.28 80.41,60.82 0,5.86 -0.53,12.26 -1.59,19.18 0,0 -4.82,28.41 -4.82,28.41 0,0 -122,0 -122,0 0,0 -1.59,9.2 -1.59,9.2 -0.53,3.2 -0.8,6.14 -0.8,8.8 0,14.67 8.67,22 26,22 6.4,0 11.86,-2 16.39,-6 4.54,-4 7.21,-8.66 8,-14 0,0 66.41,0.8 66.41,0.8 -8.8,49.86 -43.61,74.79 -104.41,74.79 z m 48,-120 c 1.07,-4.53 1.61,-8.72 1.61,-12.59 0,-3.86 -1.73,-7.8 -5.2,-11.8 -3.47,-4 -9.01,-6 -16.61,-6 -7.59,0 -14.53,2.54 -20.8,7.61 -6.26,5.07 -10.59,12.66 -13,22.78 0,0 54,0 54,0 z m 231,-83.18 c 27.21,0 46.01,7.2 56.41,21.59 7.47,9.87 11.2,22.4 11.2,37.59 0,6.14 -0.66,12.68 -2,19.61 0,0 -8,46.8 -8,46.8 -4.53,25.34 -14.26,44.6 -29.2,57.8 -14.94,13.2 -33.61,19.79 -56,19.79 -22.4,0 -38,-6 -46.8,-18 0,0 -21.61,123.61 -21.61,123.61 0,0 -68,0 -68,0 0,0 53.61,-303.61 53.61,-303.61 0,0 61.6,0 61.6,0 0,0 -2,10.82 -2,10.82 12.53,-10.67 29.46,-16 50.79,-16 z m -41.59,145.59 c 7.47,0 14.4,-2.4 20.8,-7.2 6.4,-4.8 10.4,-12 12,-21.6 0,0 5.2,-30 5.2,-30 0.53,-2.66 0.8,-6 0.8,-10 0,-4 -1.74,-8.26 -5.21,-12.79 -3.46,-4.54 -9.46,-6.82 -18,-6.82 -13.86,0 -22.93,3.34 -27.18,10 0,0 -12,67.21 -12,67.21 3.72,7.47 11.59,11.2 23.59,11.2 z m 340.40994,0.8 c 6.12,0 11.58,-1.34 16.39,-4 0,0 -2,45.2 -2,45.2 -12.53,10.39 -26.8,15.59 -42.8,15.59 -36.26998,0 -54.40994,-15.19 -54.40994,-45.59 0,-5.33 0.54,-11.07 1.61,-17.2 0,0 8.79996,-49.21 8.79996,-49.21 0.8,-4.79 1.2,-9.58 1.2,-14.39 0,-12.8 -6.73,-19.2 -20.19996,-19.2 -13.47,0 -23.94,4.53 -31.41,13.59 0,0 -22.39,126.41 -22.39,126.41 0,0 -68,0 -68,0 0,0 53.6,-303.59 53.6,-303.59 0,0 68,0 68,0 0,0 -22.8,129.18 -22.8,129.18 14.66,-15.72 33.07,-23.59 55.19996,-23.59 26.92998,0 44.38998,6 52.38998,18 5.61,8 8.41,16.93 8.41,26.8 0,9.86 -0.8,18.93 -2.41,27.2 0,0 -10.79,59.59 -10.79,59.59 -0.26,1.61 -0.39,3.08 -0.39,4.41 0,7.2 4,10.8 12,10.8 z m 160,-146.8 c 28.79,0 50.52,6.27 65.18,18.8 11.47,9.86 17.21,23.6 17.21,41.2 0,5.87 -0.67,12.27 -2,19.2 0,0 -8.39,46.8 -8.39,46.8 -5.08,28.27 -16.88,48.27 -35.41,60 -18.53,11.73 -43.27,17.59 -74.2,17.59 -30.93,0 -53.6,-5.86 -68,-17.59 -10.67,-8.8 -16,-22 -16,-39.59 0,-6.14 0.66,-12.94 2,-20.41 0,0 8.4,-46.8 8.4,-46.8 9.34,-52.8 46.4,-79.2 111.21,-79.2 z m 10.79,87.2 c 0.53,-2.66 0.8,-6.06 0.8,-10.2 0,-4.13 -1.73,-8.73 -5.2,-13.8 -3.47,-5.07 -9.54,-7.61 -18.21,-7.61 -8.66,0 -15.93,2.87 -21.79,8.61 -5.87,5.73 -9.6,13.4 -11.21,23 0,0 -5.18,30 -5.18,30 -0.55,2.67 -0.82,6.07 -0.82,10.21 0,4.12 1.74,8.59 5.21,13.39 3.47,4.8 9.53,7.2 18.2,7.2 8.66,0 15.93,-3 21.8,-9 5.86,-6 9.59,-13.27 11.2,-21.8 0,0 5.2,-30 5.2,-30 z m 287.6,110.8 c 0,0 -74.39,0 -74.39,0 0,0 -28.41,-55.59 -28.41,-55.59 0,0 -48,55.59 -48,55.59 0,0 -74.41,0 -74.41,0 0,0 86.41,-98.41 86.41,-98.41 0,0 -52,-96.79 -52,-96.79 0,0 75.59,0 75.59,0 0,0 27.21,54.79 27.21,54.79 0,0 46.79,-54.79 46.79,-54.79 0,0 75.61,0 75.61,0 0,0 -86.79,97.2 -86.79,97.2 0,0 52.39,98 52.39,98 z"
     style="fill:url(#linearGradient830);fill-opacity:1;fill-rule:nonzero;stroke:none"
     inkscape:export-xdpi="96"
     inkscape:export-ydpi="96" />
</svg>
